<!--?xml version="1.0" encoding="utf-8"?-->
<!-- Generator: Adobe Illustrator 19.1.1, SVG Export Plug-In . SVG Version: 6.00 Build 0)  -->
<svg version="1.1" id="_x31_0" xmlns="http://www.w3.org/2000/svg" xmlns:xlink="http://www.w3.org/1999/xlink" x="0px" y="0px" viewBox="0 0 512 512" style="enable-background:new 0 0 512 512;" xml:space="preserve">
<style type="text/css">
	.st0{fill:#374149;}
</style>
<g>
	<path class="st0" d="M256,200.472c-30.617,0-55.527,24.914-55.527,55.527c0,30.617,24.91,55.523,55.527,55.523
		c30.614,0,55.523-24.906,55.523-55.523C311.523,225.386,286.614,200.472,256,200.472z"></path>
	<path class="st0" d="M494.23,201.827l-42.718-2.614c-7.45-0.523-13.852-5.226-16.465-12.148
		c-7.317-18.813-17.375-36.188-29.918-51.606c-4.57-5.75-5.484-13.59-2.218-20.25l19.074-38.281
		c4.57-9.012,1.305-19.988-7.449-24.953l-61.141-35.274c-8.621-5.094-19.726-2.481-25.344,5.878l-23.648,35.797
		c-4.051,6.141-11.367,9.406-18.68,8.231c-9.668-1.566-19.598-2.352-29.789-2.352c-10.058,0-19.988,0.786-29.789,2.352
		c-7.313,1.175-14.629-2.09-18.68-8.231l-23.648-35.797c-5.489-8.359-16.59-10.972-25.215-5.878l-61.27,35.274
		c-8.625,4.965-11.89,15.941-7.449,24.953l19.074,38.281c3.398,6.661,2.481,14.5-2.222,20.25
		c-12.41,15.418-22.598,32.793-29.785,51.606c-2.614,6.922-9.145,11.625-16.462,12.148l-42.722,2.614
		C7.836,202.351,0,210.71,0,220.773v70.546c0,10.058,7.836,18.29,17.766,18.946l42.722,2.613c7.317,0.52,13.848,5.223,16.462,12.016
		c7.187,18.816,17.374,36.191,29.785,51.606c4.703,5.75,5.621,13.718,2.222,20.382l-19.074,38.278
		c-4.442,9.016-1.176,19.859,7.449,24.953l61.27,35.278c8.625,4.965,19.726,2.352,25.215-6.012l23.648-35.664
		c4.051-6.14,11.367-9.41,18.68-8.234c9.801,1.57,19.73,2.352,29.789,2.352c10.191,0,20.121-0.782,29.789-2.352
		c7.313-1.175,14.629,2.094,18.68,8.234l23.648,35.664c5.618,8.364,16.723,10.977,25.344,6.012l61.141-35.278
		c8.754-5.094,12.019-15.937,7.449-24.953l-19.074-38.278c-3.266-6.664-2.352-14.633,2.218-20.382
		c12.543-15.414,22.602-32.79,29.918-51.606c2.613-6.793,9.015-11.496,16.465-12.016l42.718-2.613
		c9.93-0.656,17.77-8.887,17.77-18.946v-70.546C512,210.71,504.16,202.351,494.23,201.827z M371.554,256.046
		c0,63.754-51.734,115.489-115.621,115.489c-63.754,0-115.492-51.734-115.492-115.489c0-63.754,51.738-115.492,115.492-115.492
		C319.82,140.554,371.554,192.292,371.554,256.046z"></path>
</g>
</svg>
